<svg data-v-0dd9719b="" version="1.0" xmlns="http://www.w3.org/2000/svg" xmlns:xlink="http://www.w3.org/1999/xlink" width="100%" height="100%" 
viewBox="0 0 340.000000 150.000000" preserveAspectRatio="xMidYMid meet" color-interpolation-filters="sRGB" style="margin: auto;">
  <rect data-v-0dd9719b="" x="0" y="0" width="100%" height="100%"  fill-opacity="0" class="background"></rect>
    <g data-v-0dd9719b="" class="iconmbgsvg" transform="translate(89.01000213623047,73.75)">
    <g fill="#7ec3c4" hollow-target="text" transform="scale(1.3)">
      <g transform="translate(23.73999786376953,-50)"  mask="url(#41a90439-1d5f-4de0-ad1f-9a3bda934d2d)">
        <g>
          <rect fill-opacity="0" stroke-width="2" x="0" y="0" width="102.5" height="102.5" class="image-rect"></rect>
          <svg x="0" y="0" width="102.5" height="102.5" filtersec="colorsb7941921196" class="image-svg-svg primary" style="overflow: visible;">
            <svg fill="#1dc5db" xmlns="http://www.w3.org/2000/svg" xmlns:xlink="http://www.w3.org/1999/xlink" xml:space="preserve" version="1.1" style="shape-rendering:geometricPrecision;text-rendering:geometricPrecision;image-rendering:optimizeQuality;" viewBox="0 0 249 249" x="0px" y="0px" fill-rule="evenodd" clip-rule="evenodd">
              <defs></defs>
              <g>
                <path class="fil0" d="M125 0c68,0 124,56 124,125 0,68 -56,124 -124,124 -69,0 -125,-56 -125,-124 0,-69 56,-125 125,-125z"></path>
              </g>
            </svg>
          </svg> 
        </g>
      </g>
      <g transform="translate(0,-31)">
        <g data-gra="path-name" fill-rule="" class="tp-name">
          <g transform="scale(1)">
            <g>
              <path d="M30.59 6.09Q27.72 6.09 24.12 4.83 20.51 3.57 14.91 1.19L14.91 1.19 11.55-0.28Q7.77 3.71 3.43 3.71L3.43 3.71Q1.12 3.71-0.7 2.66-2.52 1.61-3.5 0.11-4.48-1.4-4.48-2.8L-4.48-2.8Q-4.48-4.34-3.12-5.32-1.75-6.3 1.26-6.3L1.26-6.3Q4.69-6.3 10.08-4.9L10.08-4.9Q11.69-7.84 13.2-11.9 14.7-15.96 16.66-22.19L16.66-22.19 18.41-27.58Q14.98-28.7 13.06-30.8 11.13-32.9 11.13-35.21L11.13-35.21Q11.13-37.45 12.78-39.34 14.42-41.23 17.01-41.23L17.01-41.23Q15.61-39.41 15.61-36.47L15.61-36.47Q15.61-34.3 16.63-32.66 17.64-31.01 19.25-30.03L19.25-30.03Q22.4-39.55 25.97-44.98 29.54-50.4 34.72-50.4L34.72-50.4Q37.66-50.4 40.08-48.62 42.49-46.83 42.49-42.84L42.49-42.84Q42.49-39.27 40.5-35.53 38.5-31.78 34.3-29.19 30.1-26.6 23.87-26.6L23.87-26.6Q21.35-18.97 19.11-13.37 16.87-7.77 14.28-3.78L14.28-3.78Q20.58-1.89 25.03-0.81 29.47 0.28 32.83 0.28L32.83 0.28Q34.44 0.28 35.88-0.07 37.31-0.42 38.99-1.26L38.99-1.26Q37.59 2.59 35.56 4.34 33.53 6.09 30.59 6.09L30.59 6.09ZM24.64-28.91Q28.42-29.19 31.36-31.89 34.3-34.58 35.95-38.19 37.59-41.79 37.59-44.52L37.59-44.52Q37.59-47.67 35.28-47.67L35.28-47.67Q32.48-47.67 30.1-42.95 27.72-38.22 24.64-28.91L24.64-28.91ZM2.73 1.12Q4.34 1.12 5.43 0.46 6.51-0.21 7.91-1.68L7.91-1.68Q2.94-3.5 0.56-3.5L0.56-3.5Q-0.7-3.5-1.33-3.05-1.96-2.59-1.96-1.82L-1.96-1.82Q-1.96-0.63-0.56 0.25 0.84 1.12 2.73 1.12L2.73 1.12ZM46.62 3.29Q44.17 3.29 42.53 1.68 40.88 0.07 40.88-2.87L40.88-2.87Q40.88-6.93 43.86-11.97 46.83-17.01 51.45-20.51 56.07-24.01 60.69-24.01L60.69-24.01Q63.77-24.01 65.84-22.44 67.9-20.86 67.9-18.41L67.9-18.41Q67.9-15.19 63.91-15.05L63.91-15.05Q66.43-14.28 66.43-12.95L66.43-12.95Q66.43-12.46 65.94-11.48 65.45-10.5 64.82-9.45L64.82-9.45Q63.7-7.63 63.07-6.27 62.44-4.9 62.44-3.71L62.44-3.71Q62.44-2.66 62.97-1.93 63.49-1.19 64.54-1.19L64.54-1.19Q66.5-1.19 69.55-3.92 72.59-6.65 75.46-12.11L75.46-12.11 76.79-10.78Q74.2-4.97 70.35-1.44 66.5 2.1 62.58 2.1L62.58 2.1Q59.78 2.1 58.28 0.25 56.77-1.61 56.77-3.99L56.77-3.99Q53.62-0.21 51.38 1.54 49.14 3.29 46.62 3.29L46.62 3.29ZM48.09-0.28Q50.54-0.28 53.8-3.82 57.05-7.35 61.18-13.02L61.18-13.02 62.58-14.91Q62.79-15.26 63.14-15.26L63.14-15.26 63.42-15.19Q63.77-16.31 63.77-17.78L63.77-17.78Q63.77-21.42 60.83-21.42L60.83-21.42Q57.75-21.42 54.39-18.13 51.03-14.84 48.76-10.29 46.48-5.74 46.48-2.52L46.48-2.52Q46.48-1.33 46.87-0.81 47.25-0.28 48.09-0.28L48.09-0.28ZM81.13 5.11Q77.21 5.11 75.11 2.66 73.01 0.21 73.01-4.2L73.01-4.2Q73.01-10.78 77.21-21.81 81.41-32.83 86.8-41.41 92.19-49.98 95.27-49.98L95.27-49.98Q96.6-49.98 97.34-48.51 98.07-47.04 98.14-45.15L98.14-45.15Q98.14-41.79 95.83-36.37 93.52-30.94 89.78-25.97 86.03-21 81.9-18.62L81.9-18.62Q80.92-16.8 79.84-12.64 78.75-8.47 78.75-4.62L78.75-4.62Q78.75-1.54 79.63 0.32 80.5 2.17 82.39 2.17L82.39 2.17Q84.21 2.17 86.31 0.53 88.41-1.12 89.74-3.57L89.74-3.57Q87.22-4.97 85.86-7.46 84.49-9.94 84.49-12.81L84.49-12.81Q84.49-16.17 86.31-18.31 88.13-20.44 90.86-20.44L90.86-20.44Q93.24-20.44 94.64-18.66 96.04-16.87 96.04-13.44L96.04-13.44Q96.04-9.17 93.94-4.62L93.94-4.62 95.2-4.55Q98.42-4.55 100.52-6.79 102.62-9.03 104.23-12.32L104.23-12.32 105.28-10.85Q103.39-6.51 100.84-4.45 98.28-2.38 94.29-2.38L94.29-2.38Q93.31-2.38 92.82-2.45L92.82-2.45Q90.65 0.98 87.71 3.05 84.77 5.11 81.13 5.11L81.13 5.11ZM83.23-23.03Q86.1-25.62 88.76-29.79 91.42-33.95 93.1-37.84 94.78-41.72 94.85-43.4L94.85-43.4Q93.94-43.05 91.7-39.9 89.46-36.75 87.08-32.17 84.7-27.58 83.23-23.03L83.23-23.03ZM90.93-5.88Q92.19-8.75 92.19-11.83L92.19-11.83Q92.19-14.21 91.63-15.47 91.07-16.73 90.16-16.73L90.16-16.73Q89.25-16.73 88.59-15.47 87.92-14.21 87.92-12.46L87.92-12.46Q87.92-10.71 88.66-8.86 89.39-7 90.93-5.88L90.93-5.88ZM107.94 2.24Q104.86 2.24 103.25 0.39 101.64-1.47 101.64-4.41L101.64-4.41Q101.64-7.28 102.86-10.43 104.09-13.58 106.05-15.72 108.01-17.85 110.11-17.85L110.11-17.85Q110.74-17.85 112.21-17.29L112.21-17.29Q112.63-20.51 114.52-22.61 116.41-24.71 119.49-24.71L119.49-24.71Q125.02-24.71 125.02-19.04L125.02-19.04Q125.02-16.38 123.86-13.3 122.71-10.22 120.68-7.21L120.68-7.21Q121.94-6.79 122.71-6.79L122.71-6.79Q126.07-6.79 128.38-9.03 130.69-11.27 132.09-14.35 133.49-17.43 134.82-21.7L134.82-21.7Q134.19-22.47 134.19-23.45L134.19-23.45Q134.19-24.85 134.78-26.04 135.38-27.23 136.19-27.93 136.99-28.63 137.55-28.63L137.55-28.63Q139.09-28.63 139.09-26.46L139.09-26.46Q139.09-26.18 138.7-25.17 138.32-24.15 138.32-23.94L138.32-23.94Q138.32-23.45 138.84-23.03 139.37-22.61 140.56-21.77L140.56-21.77Q143.01-20.23 144.44-18.66 145.88-17.08 145.88-14.56L145.88-14.56Q145.88-13.02 145.36-11.45 144.83-9.87 143.92-7.7L143.92-7.7Q142.52-4.62 142.52-3.29L142.52-3.29Q142.52-2.31 142.97-1.96 143.43-1.61 144.27-1.61L144.27-1.61Q146.3-1.61 148.72-3.29 151.13-4.97 153.16-7.39 155.19-9.8 156.1-11.9L156.1-11.9 157.5-10.92Q155.12-5.81 151.03-1.96 146.93 1.89 142.52 1.89L142.52 1.89Q139.93 1.89 138.28 0.53 136.64-0.84 136.64-3.08L136.64-3.08Q136.64-4.48 137.13-6.06 137.62-7.63 138.6-9.87L138.6-9.87Q139.44-11.97 139.86-13.2 140.28-14.42 140.28-15.47L140.28-15.47Q140.28-18.34 136.57-20.3L136.57-20.3Q134.89-15.33 133.38-12.15 131.88-8.96 129.15-6.55 126.42-4.13 122.29-4.13L122.29-4.13Q120.54-4.13 118.93-4.76L118.93-4.76Q116.34-1.61 113.47 0.32 110.6 2.24 107.94 2.24L107.94 2.24ZM118.51-8.96Q120.12-11.34 121-13.86 121.87-16.38 121.87-18.62L121.87-18.62Q121.87-20.16 121.31-21 120.75-21.84 120.05-21.84L120.05-21.84Q118.58-21.84 117.28-20.02 115.99-18.2 115.99-15.61L115.99-15.61Q115.99-14 116.72-12.18 117.46-10.36 118.51-8.96L118.51-8.96ZM109.34-1.26Q110.67-1.26 112.56-2.7 114.45-4.13 116.41-6.37L116.41-6.37Q112.28-9.73 112.14-16.73L112.14-16.73Q110.6-14.98 108.85-11.1 107.1-7.21 107.1-4.97L107.1-4.97Q107.1-3.15 107.69-2.21 108.29-1.26 109.34-1.26L109.34-1.26Z" transform="translate(4.480000019073486, 50.400001525878906)"></path>
            </g> 
          </g>
        </g> 
      </g>
    </g>
  </g>
  <mask id="41a90439-1d5f-4de0-ad1f-9a3bda934d2d"></mask>
</svg>
